# xmcd
#
# Track frame offsets: 
#        150
#        16597
#        32644
#        54231
#        75316
#        92478
#        109896
#        126636
#        145329
#        160779
#        181454
#        196107
#        213737
#        248144
#
# Disc length: 3790 seconds
#
# Revision: 2
# Processed by: cddbd v1.5.2PL0 Copyright (c) Steve Scherf et al.
# Submitted via: ExactAudioCopy v1.0b3
#
DISCID=b40ecc0e
DTITLE=Celine Dion and Anne Geddes - Miracle
DYEAR=2004
DGENRE=Blues
TTITLE0=Miracle
TTITLE1=Brahms Lullaby
TTITLE2=If I Could
TTITLE3=Sleep Tight
TTITLE4=What A Wonderfull World
TTITLE5=My Precious One
TTITLE6=A Mothers Prayer
TTITLE7=First Time Ever I Saw Your Face
TTITLE8=Baby Close Your Eyes
TTITLE9=Come To Me
TTITLE10=Le Loup La Biche Et Le Chevalier
TTITLE11=Beautiful Boy
TTITLE12=In Some Way
TTITLE13=Copy
EXTD=
EXTT0=
EXTT1=
EXTT2=
EXTT3=
EXTT4=
EXTT5=
EXTT6=
EXTT7=
EXTT8=
EXTT9=
EXTT10=
EXTT11=
EXTT12=
EXTT13=
PLAYORDER=
